<svg width="55" height="55" viewBox="0 0 55 55" fill="none" xmlns="http://www.w3.org/2000/svg">
<circle cx="27.5" cy="27.5" r="27" stroke="#8C8979"/>
<path d="M19.7165 15H36.166H36.9003V15.7698V38.0045V38.7743H36.166H19.7165H19V38.0045V15.7698V15H19.7165ZM26.5201 25.5696C26.6919 25.5696 26.8399 25.7177 26.8399 25.9072V27.8671C26.8399 28.0388 26.6919 28.1869 26.5201 28.1869C26.3484 28.1869 26.2181 28.0329 26.2181 27.8671V25.9072C26.2181 25.7236 26.3484 25.5696 26.5201 25.5696ZM29.3624 25.5696C29.5341 25.5696 29.6644 25.7177 29.6644 25.9072V27.8671C29.6644 28.0388 29.5341 28.1869 29.3624 28.1869C29.1907 28.1869 29.0604 28.0329 29.0604 27.8671V25.9072C29.0604 25.7236 29.1966 25.5696 29.3624 25.5696ZM33.2646 39.023H35.0528V40H33.2646V39.023ZM20.9244 39.023H22.7127V40H20.9244V39.023ZM28.6696 16.5455V37.217H35.4318V16.5455H28.6696ZM27.2189 37.217V16.5455H20.4507V37.217H27.2189Z" fill="#262526"/>
</svg>
