<svg width="119" height="121" viewBox="0 0 119 121" fill="none" xmlns="http://www.w3.org/2000/svg">
<path d="M119 34.5339H65.4268V72.5891H119V34.5339Z" fill="#A8DADC"/>
<path d="M119 34.7183H65.4268V42.1076H119V34.7183Z" fill="#FF6542"/>
<path d="M18.4441 54.3005C16.6616 53.7909 15.6031 56.8998 15.0471 59.4092L12.0324 55.2767L1.99512 61.9678L5.10194 72.4418L18.5649 64.2299C18.5649 64.2299 21.8353 55.2696 18.4441 54.3005" fill="#9B4A3A"/>
<path d="M95.8815 74.5138V96.1208L88.9081 103.82L73.5333 120.795H41.8633L43.1405 91.2415L95.8815 74.5138" fill="#4080FE"/>
<path d="M78.5981 63.3058L76.4532 71.7972L54.9463 70.4507L57.5171 63.8647L59.3317 48.4349L74.2069 38.7271L78.5981 63.3058Z" fill="#B2614E"/>
<path d="M67.9858 48.382C66.2948 52.9325 62.594 56.6318 58.1436 58.5401L59.2785 48.9016L63.7147 45.987C65.147 46.7882 66.5235 47.5772 67.9858 48.382Z" fill="black"/>
<path d="M76.1651 31.0433L75.8184 31.9553L69.3511 49.0682C69.3511 49.0682 60.6145 58.0763 51.6013 50.1645C46.6013 45.7655 45.164 34.0994 47.6476 24.9554C47.7276 24.6638 47.8091 24.3772 47.8956 24.0921L47.9342 23.9641L47.9878 23.7897L48.0142 23.704C48.1222 23.3752 48.2336 23.0472 48.3544 22.7255C48.4338 22.4918 48.5181 22.2689 48.611 22.0459C48.724 21.7535 48.8469 21.4648 48.9705 21.1818C50.292 18.1722 52.1445 15.6921 54.5488 14.2234C55.0941 13.8889 55.6659 13.6023 56.2705 13.3801C56.5478 13.2743 56.8308 13.1842 57.1196 13.1063C57.3512 13.0413 57.5891 12.9877 57.8271 12.9412C58.4539 12.8219 59.1015 12.7583 59.7783 12.759L59.9677 12.7618C65.7382 12.8019 69.4504 15.1461 71.8411 18.1307C74.8622 21.8979 75.7698 26.6993 76.0457 29.2572C76.055 29.3502 76.0657 29.4373 76.0743 29.5245L76.0857 29.6503L76.1029 29.9005C76.1193 30.1363 76.1336 30.3415 76.1443 30.5108C76.1594 30.7431 76.1629 30.9075 76.1658 30.9868L76.1651 31.0433" fill="#B2614E"/>
<path d="M55.9026 40.5503C55.363 40.5503 54.8441 40.323 54.4782 39.9271C54.1123 39.5311 53.9272 38.9958 53.9686 38.4576L54.5118 31.5979L55.4023 31.6679L54.8591 38.5277C54.8363 38.8228 54.9342 39.1037 55.1343 39.321C55.3344 39.5376 55.6074 39.6569 55.9026 39.6569H55.9033V40.5503H55.9026Z" fill="black"/>
<path d="M60.0762 32.2897C60.0769 32.8107 60.3785 33.2324 60.7509 33.2324C61.1225 33.2324 61.4241 32.81 61.4234 32.2897C61.4234 31.7687 61.1218 31.347 60.7502 31.347C60.3778 31.347 60.0762 31.7694 60.0762 32.2897" fill="black"/>
<path d="M49.8398 32.2933C49.8398 32.8143 50.1414 33.2367 50.5131 33.236C50.8855 33.236 51.1871 32.8136 51.1863 32.2933C51.1863 31.7722 50.8847 31.3506 50.5124 31.3506C50.1407 31.3506 49.8391 31.7729 49.8398 32.2933Z" fill="black"/>
<path d="M62.397 27.8814C62.6879 27.955 62.9795 28.0472 63.2103 28.1951C63.4412 28.3431 63.6034 28.5582 63.5641 28.7562C63.4998 29.0835 62.9587 29.2193 62.4784 29.2579C61.4464 29.3422 60.3465 29.2243 59.3359 28.9206C58.9785 28.8134 58.5926 28.6525 58.4811 28.4003C58.2209 27.8135 59.308 27.6327 59.7511 27.6062C60.6131 27.5533 61.5501 27.6648 62.397 27.8814" fill="black"/>
<path d="M51.6387 27.6011C51.8981 27.6247 52.1611 27.664 52.3777 27.7634C52.5943 27.8634 52.7586 28.0335 52.7465 28.2186C52.7265 28.5245 52.2726 28.7282 51.861 28.8354C50.9769 29.0656 50.0106 29.1235 49.1015 28.9998C48.7799 28.9562 48.4282 28.8676 48.3039 28.656C48.013 28.1643 48.935 27.8377 49.3166 27.7477C50.0578 27.5711 50.8811 27.5318 51.6387 27.6011Z" fill="black"/>
<path d="M113.654 106.855L59.9844 88.174C59.9844 88.174 53.5721 110.911 41.9631 118.419C40.613 119.294 39.1907 119.961 37.702 120.363C36.6585 120.643 35.5829 120.795 34.4751 120.795C22.9126 120.795 10.9277 97.7424 4.93131 84.326C2.47058 78.817 1.01758 74.9326 1.01758 74.9326L20.6741 62.9434L24.9709 69.6617L32.8027 81.9031C32.8027 81.9031 39.0757 70.3321 42.8386 66.9865C46.6022 63.6403 57.3364 63.919 57.3364 63.919C60.5426 75.9082 78.6654 63.3615 78.6654 63.3615C78.6654 63.3615 92.0661 62.386 96.3687 64.0584C101.388 66.0095 118.464 94.2976 113.654 106.855" fill="#4080FE"/>
<path d="M88.908 103.82L73.5332 120.795H67.7741L61.3789 97.5845L82.8472 89.499L85.774 80.7174L88.908 103.82" fill="#3367CC"/>
<path d="M57.8622 106.528C54.7146 107.431 52.6592 106.716 52.4283 105.025C52.2375 103.638 57.0903 102.538 61.3428 102.227C64.2031 102.019 67.4257 101.327 67.4257 101.327" fill="#B2614E"/>
<path d="M67.4258 101.327L73.0584 116.857C73.0584 116.857 55.3358 120.389 53.7434 118.74C52.7893 117.752 53.5576 116.991 53.5576 116.991C53.5576 116.991 51.8066 117.564 51.034 116.784C50.2607 116.003 50.8481 115.035 50.8481 115.035C50.8481 115.035 49.2644 115.309 49.1343 113.836C48.9913 112.225 53.3596 109.2 57.8623 106.528" fill="#B2614E"/>
<path d="M51.1491 115.365L50.5459 114.705C50.6524 114.609 53.1817 112.318 57.0955 110.58L57.4585 111.397C53.6756 113.076 51.1734 115.342 51.1491 115.365" fill="black"/>
<path d="M53.7969 117.368L53.3174 116.614C53.4303 116.542 56.1083 114.846 58.8363 113.693L59.1844 114.516C56.5264 115.639 53.8241 117.35 53.7969 117.368" fill="black"/>
<path d="M60.628 0.135136C63.1316 -0.419476 65.9247 0.774091 67.2555 2.96609C68.5856 5.1581 68.3554 8.18631 66.7094 10.1518C65.0628 12.1172 62.121 12.8748 59.7296 11.9485C54.1399 9.78295 54.7739 1.4309 60.628 0.135136" fill="black"/>
<path d="M113.654 106.855C110.343 115.803 93.9351 119.009 82.6091 120.156C76.2926 120.795 71.5562 120.795 71.5562 120.795L65.4219 98.7702L73.6467 95.7842L85.7746 91.3816V80.6467L113.654 106.855Z" fill="#4080FE"/>
<path d="M43.1182 91.2415L41.9632 118.42C40.6132 119.294 39.1916 119.961 37.7021 120.362L43.1182 91.2415Z" fill="#3367CC"/>
<path d="M35.9034 48.9924C30.7739 55.5362 21.3105 56.6833 14.7667 51.5546C8.2221 46.4251 7.07572 36.9617 12.2044 30.4171C17.3332 23.8733 26.7973 22.7262 33.3412 27.8556C39.885 32.9851 41.0328 42.4478 35.9034 48.9924" fill="#FF6542"/>
<path d="M1.32871 68.6739C-0.226487 67.4561 -0.450182 65.1869 0.836288 63.6874L18.9212 42.6122L22.4318 45.3638L6.28807 67.9606C5.14025 69.568 2.8832 69.8925 1.32871 68.6739Z" fill="#FF6542"/>
<path d="M32.9403 46.6695C32.2949 47.4936 31.5573 48.204 30.754 48.7951C29.1466 49.9808 27.277 50.6976 25.3494 50.9206C22.4999 51.2508 19.5238 50.5018 17.0881 48.5914C15.9574 47.7051 15.0412 46.6474 14.3501 45.4824C12.8978 43.046 12.4239 40.1443 13.0007 37.3884C13.3438 35.7445 14.0606 34.1515 15.167 32.7399C17.6098 29.6224 21.3656 28.1365 25.0378 28.4545C26.1227 28.5489 27.2019 28.8012 28.2361 29.2129C29.1316 29.5709 29.9943 30.0505 30.8012 30.6508C30.8741 30.7059 30.9463 30.7616 31.0192 30.8181C31.4694 31.1704 31.8854 31.5514 32.2663 31.9537C36.0457 35.9489 36.4345 42.2119 32.9403 46.6695" fill="#A8DADC"/>
<path d="M30.7539 48.7951L32.2662 31.9538C34.296 34.0993 35.3481 36.8995 35.3452 39.7226C35.343 42.1562 34.5576 44.6062 32.9402 46.6696C32.2948 47.4936 31.5572 48.204 30.7539 48.7951" fill="#D4EDEE"/>
<path d="M13.001 37.3884C13.344 35.7445 14.0609 34.1515 15.1673 32.7399C17.3936 29.8982 20.7112 28.4124 24.0611 28.4124C24.387 28.4124 24.7121 28.4267 25.038 28.4545L13.001 37.3884Z" fill="#D4EDEE"/>
<path d="M13.4238 63.2736C13.4238 63.2736 14.1006 64.0926 13.0729 64.9639C12.0673 65.8186 3.10416 64.1112 2.0178 62.5582C0.493334 60.3762 6.66839 52.4222 10.2355 52.6345C13.0707 52.8024 18.3488 59.0632 18.0522 60.6227C17.7821 62.0486 16.2619 61.6262 16.2619 61.6262C16.2619 61.6262 16.7407 62.6303 15.9102 63.3164C15.0783 64.0061 13.4238 63.2736 13.4238 63.2736" fill="#B2614E"/>
<path d="M15.9286 61.9257C15.9057 61.9007 13.6758 59.4407 10.1523 57.4374L10.594 56.6605C14.2505 58.7396 16.4997 61.2239 16.5933 61.3289L15.9286 61.9257" fill="black"/>
<path d="M13.1474 63.626C13.1231 63.606 10.6495 61.672 8.16309 60.3169L8.59119 59.5321C11.1448 60.9244 13.5963 62.8419 13.6999 62.9227L13.1474 63.626Z" fill="black"/>
<path d="M49.5298 31.119C47.5086 31.119 45.8641 32.7636 45.8641 34.7848C45.8641 36.8059 47.5086 38.4505 49.5298 38.4505C51.5517 38.4505 53.1955 36.8059 53.1955 34.7848C53.1955 32.7636 51.5517 31.119 49.5298 31.119ZM49.5298 39.3439C47.0169 39.3439 44.9707 37.2984 44.9707 34.7848C44.9707 32.2711 47.0169 30.2256 49.5298 30.2256C52.0442 30.2256 54.0889 32.2711 54.0889 34.7848C54.0889 37.2984 52.0442 39.3439 49.5298 39.3439Z" fill="#FF6542"/>
<path d="M59.8462 31.119C57.825 31.119 56.1805 32.7636 56.1805 34.7848C56.1805 36.8059 57.825 38.4505 59.8462 38.4505C61.8674 38.4505 63.512 36.8059 63.512 34.7848C63.512 32.7636 61.8674 31.119 59.8462 31.119ZM59.8462 39.3439C57.3319 39.3439 55.2871 37.2984 55.2871 34.7848C55.2871 32.2711 57.3319 30.2256 59.8462 30.2256C62.3606 30.2256 64.4053 32.2711 64.4053 34.7848C64.4053 37.2984 62.3606 39.3439 59.8462 39.3439Z" fill="#FF6542"/>
<path d="M55.7338 35.1614H53.6426V34.2681H55.7338V35.1614Z" fill="#FF6542"/>
<path d="M64.1811 35.1021L63.7344 34.328L74.6079 28.0551L75.0539 28.8291L64.1811 35.1021Z" fill="#FF6542"/>
<path d="M76.0462 29.2572C72.0696 29.3708 68.0494 28.1473 64.8482 25.7744C61.6191 23.3788 59.2749 19.8381 58.2436 15.9537C55.8021 19.5872 52.1393 22.3996 47.9883 23.7897L48.0147 23.7039C48.1227 23.3752 48.2341 23.0471 48.3549 22.7255C48.4342 22.4918 48.5186 22.2688 48.6115 22.0458C48.7244 21.7535 48.8474 21.4648 48.971 21.1817C50.2925 18.1721 52.145 15.6921 54.5493 14.2234C55.0946 13.8889 55.6664 13.6023 56.271 13.38C56.5483 13.2742 56.8313 13.1842 57.1201 13.1063C57.3516 13.0412 57.5896 12.9876 57.8276 12.9412C58.4544 12.8218 59.102 12.7582 59.7788 12.7589L59.9682 12.7618C65.7387 12.8018 69.4509 15.1461 71.8416 18.1307C74.8627 21.8979 75.7703 26.6993 76.0462 29.2572" fill="black"/>
<path d="M72.4587 30.4372C73.0955 29.408 74.367 28.8627 75.5748 28.9449C76.7813 29.0278 77.9069 29.676 78.7245 30.5672C80.5928 32.6049 80.7922 35.9733 79.1763 38.2167C77.561 40.4602 74.3034 41.3393 71.7783 40.2122" fill="#B2614E"/>
<path d="M76.3395 36.9589L75.449 36.8945C75.5533 35.4408 75.0123 33.9464 74.001 32.8965L74.3333 32.1403L77.0277 32.2061L77.0063 33.0995L75.2767 33.0566C76.0479 34.1915 76.4381 35.5909 76.3395 36.9589" fill="black"/>
<path d="M59.1984 40.7614L59.102 41.6501C58.4711 41.581 57.988 41.6417 57.6237 41.8351C57.249 42.0339 56.9698 42.3991 56.8766 42.8123L56.0054 42.6165C56.1552 41.9521 56.6028 41.3648 57.2048 41.0456C57.7323 40.7664 58.3852 40.6732 59.1984 40.7614Z" fill="black"/>
<path d="M65.2715 75.1113C62.1829 75.1113 59.2263 74.4119 56.9757 73.0993C53.5662 71.1119 51.8725 67.6602 52.8566 64.7058L53.7188 64.8827C52.8245 67.5684 54.3813 70.716 57.507 72.5371C60.3388 74.189 64.3865 74.7989 68.3337 74.1689C71.746 73.6246 75.1284 72.2302 78.3881 70.0239C81.2149 68.1099 83.5939 65.8548 86.1904 63.3187L86.885 63.7577C84.2614 66.3207 81.8546 68.6015 78.97 70.5536C75.5933 72.8389 72.0747 74.2865 68.5112 74.8549C67.4316 75.0273 66.3433 75.1113 65.2715 75.1113" fill="black"/>
<path d="M24.9709 69.6617L4.93131 84.326C2.47058 78.817 1.01758 74.9326 1.01758 74.9326L20.6741 62.9434L24.9709 69.6617" fill="white"/>
<path d="M82.6091 120.156C76.2926 120.795 71.5562 120.795 71.5562 120.795L65.4219 98.7702L73.6467 95.7842L82.6091 120.156Z" fill="white"/>
<path d="M6.74817 76.5407C6.20643 76.5407 5.76545 76.9817 5.76545 77.5234C5.76545 78.0652 6.20643 78.5062 6.74817 78.5062C7.28992 78.5062 7.73089 78.0652 7.73089 77.5234C7.73089 76.9817 7.28992 76.5407 6.74817 76.5407ZM6.74817 79.3995C5.71399 79.3995 4.87207 78.5576 4.87207 77.5234C4.87207 76.4893 5.71399 75.6473 6.74817 75.6473C7.78235 75.6473 8.62428 76.4893 8.62428 77.5234C8.62428 78.5576 7.78235 79.3995 6.74817 79.3995Z" fill="black"/>
<path d="M75.1818 114.063C74.64 114.063 74.199 114.504 74.199 115.045C74.199 115.587 74.64 116.028 75.1818 116.028C75.7235 116.028 76.1645 115.587 76.1645 115.045C76.1645 114.504 75.7235 114.063 75.1818 114.063ZM75.1818 116.922C74.1476 116.922 73.3057 116.08 73.3057 115.045C73.3057 114.011 74.1476 113.169 75.1818 113.169C76.2159 113.169 77.0579 114.011 77.0579 115.045C77.0579 116.08 76.2159 116.922 75.1818 116.922Z" fill="black"/>
<path d="M114.52 40.8527C115.401 40.9474 116.129 40.6404 116.569 39.9884C117.051 39.2739 117.103 38.2829 116.696 37.5227C116.328 36.8326 115.64 36.4525 114.759 36.4525L114.747 36.4529C113.635 36.4566 112.609 37.4348 112.552 38.5453C112.495 39.6558 113.414 40.7339 114.52 40.8527V40.8527ZM114.834 41.3414C114.715 41.3414 114.594 41.3346 114.469 41.3214C113.128 41.1774 112.012 39.8685 112.081 38.5208C112.151 37.1731 113.396 35.9864 114.745 35.9815L114.759 35.9811C115.822 35.9811 116.658 36.4495 117.112 37.3006C117.598 38.2105 117.537 39.3968 116.96 40.252C116.48 40.9621 115.735 41.3414 114.834 41.3414" fill="#FAFAFA"/>
<path d="M107.015 40.8527C107.896 40.9474 108.624 40.6404 109.064 39.9884C109.546 39.2739 109.598 38.2829 109.192 37.5227C108.823 36.8326 108.135 36.4525 107.254 36.4525L107.242 36.4529C106.13 36.4566 105.105 37.4348 105.047 38.5453C104.99 39.6558 105.91 40.7339 107.015 40.8527V40.8527ZM107.329 41.3414C107.21 41.3414 107.089 41.3346 106.965 41.3214C105.623 41.1774 104.507 39.8685 104.576 38.5208C104.646 37.1731 105.891 35.9864 107.24 35.9815L107.254 35.9811C108.318 35.9811 109.153 36.4495 109.607 37.3006C110.093 38.2105 110.032 39.3968 109.455 40.252C108.975 40.9621 108.23 41.3414 107.329 41.3414" fill="#FAFAFA"/>
<path d="M99.5112 40.8527C100.392 40.9474 101.121 40.6404 101.56 39.9884C102.042 39.2739 102.094 38.2829 101.688 37.5227C101.319 36.8326 100.631 36.4525 99.7499 36.4525L99.7382 36.4529C98.6263 36.4566 97.6006 37.4348 97.5433 38.5453C97.486 39.6558 98.4057 40.7339 99.5112 40.8527V40.8527ZM99.8249 41.3414C99.7065 41.3414 99.5847 41.3346 99.4607 41.3214C98.1195 41.1774 97.0034 39.8685 97.0724 38.5208C97.1421 37.1731 98.3872 35.9864 99.7363 35.9815L99.7503 35.9811C100.814 35.9811 101.649 36.4495 102.103 37.3006C102.589 38.2105 102.528 39.3968 101.951 40.252C101.472 40.9621 100.726 41.3414 99.8249 41.3414" fill="#FAFAFA"/>
</svg>
