<svg width="124" height="95" viewBox="0 0 124 95" fill="none" xmlns="http://www.w3.org/2000/svg">
<path d="M60.2027 92.8482C32.6502 92.8482 10.3148 91.4818 10.3148 89.7959C10.3148 88.11 32.6502 86.7435 60.2027 86.7435C87.7548 86.7435 110.09 88.11 110.09 89.7959C110.09 91.4818 87.7548 92.8482 60.2027 92.8482" fill="#E48280"/>
<path d="M53.5864 12.0529L46.0455 -8.4468e-05C46.0455 -8.4468e-05 40.1538 1.27195 40.4427 13.1885L53.5864 12.0529Z" fill="#36262E"/>
<path d="M50.5242 12.7196L45.7647 3.43593C45.7647 3.43593 41.3643 6.16576 41.5984 13.0886L50.5242 12.7196Z" fill="#EC5A49"/>
<path d="M48.164 11.258C48.164 11.258 47.8659 7.60572 44.5094 6.92946L45.8012 9.34661C45.8012 9.34661 45.0715 8.89684 43.6665 9.09373C43.6665 9.09373 45.2964 10.3836 45.4093 11.7765C45.4093 11.7765 45.9151 10.3705 44.678 9.35298C44.678 9.35298 46.0274 9.7404 46.3085 10.2462C46.3085 10.2462 46.3085 8.72825 45.4093 7.8287C45.4093 7.8287 47.2078 8.67195 48.164 11.258Z" fill="#FDE0CF"/>
<path d="M71.2091 12.0529L78.75 -8.4468e-05C78.75 -8.4468e-05 84.6416 1.27195 84.3525 13.1885L71.2091 12.0529" fill="#36262E"/>
<path d="M74.2714 12.7196L79.0309 3.43593C79.0309 3.43593 83.4313 6.16576 83.1972 13.0886L74.2714 12.7196Z" fill="#EC5A49"/>
<path d="M76.6316 11.258C76.6316 11.258 76.9296 7.60572 80.2861 6.92946L78.9944 9.34661C78.9944 9.34661 79.7244 8.89684 81.129 9.09373C81.129 9.09373 79.4992 10.3836 79.3862 11.7765C79.3862 11.7765 78.8805 10.3705 80.1175 9.35298C80.1175 9.35298 78.7682 9.7404 78.487 10.2462C78.487 10.2462 78.487 8.72825 79.3862 7.8287C79.3862 7.8287 77.5878 8.67195 76.6316 11.258" fill="#FDE0CF"/>
<path d="M40.5105 13.1885C40.5105 13.1885 25.6179 34.7453 28.4546 40.5988C31.2907 46.4529 62.2944 75.3973 62.2944 75.3973C62.2944 75.3973 96.5837 41.8648 96.5837 34.7056C96.5837 27.5463 84.3525 13.1885 84.3525 13.1885C84.3525 13.1885 60.3862 8.26226 40.5105 13.1885Z" fill="#FDE0CF"/>
<path d="M31.0867 90.1566C31.0867 90.1566 11.2147 73.0873 30.7263 29.9883C37.6317 14.7344 90.6118 18.6679 94.1407 27.0167C111.731 68.6341 96.5836 90.1566 96.5836 90.1566H31.0867" fill="#FDE0CF"/>
<path d="M30.7232 29.995C30.7232 29.995 25.4865 97.3695 102.644 65.1889C102.644 65.1889 103.536 79.526 96.5837 90.1566H28.4546C28.4546 90.1566 13.0152 65.6295 30.7232 29.995" fill="#F1C4BE"/>
<path d="M62.1754 22.7089V36.4398L59.2795 41.9854L63.033 37.2462L66.4114 41.9854L63.5486 35.9353L63.033 22.2219L62.1754 22.7089Z" fill="#36262E"/>
<path d="M84.4807 58.8879C84.4807 58.8879 86.3438 71.2732 81.3059 75.3973C81.3059 75.3973 81.7369 72.1092 81.3059 68.6035C81.3059 68.6035 78.1708 78.1188 68.6555 79.7211C68.6555 79.7211 75.266 81.724 80.5746 71.8086C80.5746 71.8086 80.9747 76.416 80.5746 77.9182C80.5746 77.9182 88.1868 73.2107 84.4807 58.8879" fill="#FFF8ED"/>
<path d="M81.1001 38.2332C81.1001 38.2332 82.4036 50.6895 77.185 54.5822C77.185 54.5822 77.7636 51.3168 77.491 47.7958C77.491 47.7958 73.9307 57.1604 64.3524 58.3325C64.3524 58.3325 70.8665 60.631 76.616 50.9646C76.616 50.9646 76.8087 55.5855 76.3412 57.0681C76.3412 57.0681 84.1575 52.7078 81.1001 38.2332" fill="#FFF8ED"/>
<path d="M38.692 58.8879C38.692 58.8879 36.8283 71.2732 41.8662 75.3973C41.8662 75.3973 41.4358 72.1092 41.8662 68.6035C41.8662 68.6035 45.0016 78.1188 54.5165 79.7211C54.5165 79.7211 47.906 81.724 42.5981 71.8086C42.5981 71.8086 42.1973 76.416 42.5981 77.9182C42.5981 77.9182 34.9856 73.2107 38.692 58.8879" fill="#FFF8ED"/>
<path d="M33.2876 39.0367C33.2876 39.0367 25.3984 51.0903 27.5573 57.4594C27.5573 57.4594 28.8688 53.8739 31.02 50.422C31.02 50.422 28.8214 61.5837 36.0521 67.2034C36.0521 67.2034 29.4404 66.5271 30.005 54.0463C30.005 54.0463 27.3175 58.6525 26.8906 60.375C26.8906 60.375 22.8525 52.3305 33.2876 39.0367" fill="#FFF8ED"/>
<path d="M44.8998 44.1401C44.8998 44.1401 49.7258 54.6554 59.7259 58.775L53.8953 51.4577C53.8953 51.4577 62.3485 57.2571 68.3133 54.4385C68.3133 54.4385 63.3082 58.3411 57.4649 54.1134L60.9441 60.076C60.9441 60.076 49.1234 57.2637 44.8998 44.1401Z" fill="#FFF8ED"/>
<path d="M29.9538 90.1267C29.9538 90.1267 34.2184 67.1932 21.1017 62.6553C11.1785 59.2225 6.36087 47.4342 15.8625 40.2212C15.8625 40.2212 -4.91325 42.5289 5.02327 67.9537L0.86825 62.6553C0.86825 62.6553 -7.84813 91.2043 29.9538 90.1267" fill="#F1C4BE"/>
<path d="M8.49547 53.1197C8.49547 53.1197 6.63231 65.5051 11.6702 69.6291C11.6702 69.6291 11.2396 66.341 11.6702 62.8354C11.6702 62.8354 14.8057 72.3507 24.3204 73.9529C24.3204 73.9529 17.7102 75.9559 12.4018 66.0404C12.4018 66.0404 12.001 70.6479 12.4018 72.1502C12.4018 72.1502 4.78962 67.4426 8.49547 53.1197" fill="#FFF8ED"/>
<path d="M71.6942 34.4711C71.6942 34.4711 66.1922 20.8077 61.6652 21.956C57.3675 23.0457 53.1013 34.905 53.1013 34.905C53.1013 34.905 57.4054 20.0134 62.6039 20.3232C67.8033 20.633 71.6942 34.4711 71.6942 34.4711Z" fill="#36262E"/>
<path d="M59.5665 13.9313L59.3493 19.9476H42.4381L58.5976 19.0805L59.5665 13.9313" fill="#36262E"/>
<path d="M65.2301 13.9313L65.4464 19.9476H82.3575L66.1984 19.0805L65.2301 13.9313" fill="#36262E"/>
<path d="M59.5566 21.8071C59.5566 21.8071 61.2772 26.3376 62.6338 26.1493C64.3525 25.9108 65.5329 21.9009 65.5329 21.9009C65.5329 21.9009 62.8454 18.0269 59.5566 21.8071" fill="#EC5A49"/>
<path d="M62.1433 25.1566C62.1433 25.1566 62.0189 22.5082 60.9435 22.5088C60.9435 22.5088 61.9143 23.6361 62.1433 25.1566Z" fill="#FDE0CF"/>
<path d="M62.8453 25.1566C62.8453 25.1566 62.9703 22.5082 64.0458 22.5088C64.0458 22.5088 63.074 23.6361 62.8453 25.1566Z" fill="#FDE0CF"/>
<path d="M41.5687 20.8073H57.7282C57.7282 20.8073 55.7787 34.2571 49.6488 32.4783C43.5186 30.6996 41.5687 20.8073 41.5687 20.8073Z" fill="#656668"/>
<path d="M41.5687 20.844H57.7282C57.7282 20.844 55.7787 30.8182 49.6485 29.3153C43.5183 27.8123 41.5687 20.844 41.5687 20.844" fill="#FFA831"/>
<path d="M45.5713 20.8439H55.4451C55.4451 20.8439 54.3639 25.9305 50.508 26.0202C46.4645 26.1146 45.5713 20.8439 45.5713 20.8439" fill="#36262E"/>
<path d="M55.6388 22.6118C55.6388 23.0718 55.2663 23.444 54.8064 23.444C54.3467 23.444 53.9742 23.0718 53.9742 22.6118C53.9742 22.1519 54.3467 21.7794 54.8064 21.7794C55.2663 21.7794 55.6388 22.1519 55.6388 22.6118Z" fill="#FDE0CF"/>
<path d="M83.2265 20.8073H67.067C67.067 20.8073 69.2551 34.1508 75.385 32.3721C81.5152 30.5933 83.2265 20.8073 83.2265 20.8073Z" fill="#656668"/>
<path d="M83.2265 20.844H67.067C67.067 20.844 69.0169 30.8182 75.1468 29.3153C81.277 27.8123 83.2265 20.844 83.2265 20.844Z" fill="#FFA831"/>
<path d="M79.2244 20.8439H69.3506C69.3506 20.8439 70.4318 25.9305 74.2876 26.0202C78.3315 26.1146 79.2244 20.8439 79.2244 20.8439Z" fill="#36262E"/>
<path d="M77.3059 22.6118C77.3059 23.0718 77.6787 23.444 78.1383 23.444C78.5983 23.444 78.9705 23.0718 78.9705 22.6118C78.9705 22.1519 78.5983 21.7794 78.1383 21.7794C77.6787 21.7794 77.3059 22.1519 77.3059 22.6118Z" fill="#FDE0CF"/>
<path d="M116.415 46.542C116.415 46.542 114.467 63.0638 98.9092 63.8167L98.2775 38.2332C98.2775 38.2332 104.293 51.5573 110.09 39.4744C110.09 39.4744 116.337 42.2608 116.415 46.542" fill="#F8E0CF"/>
<path d="M108.971 33.2319L110.09 54.7499H107.642L106.889 33.2319H108.971" fill="#36262E"/>
<path d="M110.051 38.5977C110.051 38.5977 103.201 38.8773 104.293 44.1948C105.385 49.5129 109.109 54.609 113.252 52.063C117.395 49.5177 118.524 39.3531 110.051 38.5977" fill="#F8E0CF"/>
<path d="M100.778 34.911L93.1505 21.6999L100.778 8.48842H116.032L123.66 21.6999L116.032 34.911H100.778" fill="#EC5A49"/>
<path d="M99.5365 13.2769C99.5365 12.1817 99.6463 11.1127 99.8508 10.0776L93.1414 21.6999L100.769 34.911H116.024L119.267 29.2942C118.18 29.5217 117.055 29.6422 115.902 29.6422C106.863 29.6422 99.5365 22.3157 99.5365 13.2769" fill="#EE2839"/>
<path d="M101.949 32.6752H114.861L121.311 21.6999L114.861 10.7243H101.949L95.4995 21.6999L101.949 32.6752ZM115.346 33.5226H101.464L94.517 21.6999L101.464 9.87688H115.346L122.294 21.6999L115.346 33.5226Z" fill="#FFFAF1"/>
<path d="M101.587 24.925C101.012 24.925 100.519 24.8086 100.108 24.5759C99.7045 24.3363 99.3964 24.0145 99.1842 23.6106C98.9719 23.2067 98.8658 22.7582 98.8658 22.2653C98.8658 21.793 98.9617 21.3617 99.1534 20.9714C99.3519 20.5744 99.636 20.2629 100.006 20.0369C100.382 19.8042 100.824 19.6878 101.33 19.6878C101.974 19.6878 102.494 19.8761 102.891 20.2526C103.295 20.6291 103.497 21.1494 103.497 21.8135C103.497 21.9846 103.483 22.1489 103.456 22.3064H99.8106C99.8722 22.9568 100.071 23.4189 100.406 23.6927C100.742 23.9666 101.173 24.1035 101.7 24.1035C102.227 24.1035 102.71 24.0042 103.148 23.8057L103.271 24.5348C102.689 24.7949 102.128 24.925 101.587 24.925ZM102.542 21.6697C102.542 21.3069 102.439 21.0228 102.234 20.8174C102.029 20.612 101.721 20.5093 101.31 20.5093C100.913 20.5093 100.601 20.6086 100.375 20.8071C100.149 20.9988 99.9886 21.2863 99.8927 21.6697H102.542ZM104.429 19.7905H105.189L105.302 20.6223C105.562 20.3005 105.808 20.0643 106.041 19.9137C106.281 19.7631 106.531 19.6878 106.791 19.6878C106.873 19.6878 106.952 19.6981 107.027 19.7186L106.934 20.7352C106.845 20.7147 106.743 20.7044 106.626 20.7044C106.373 20.7044 106.133 20.7626 105.908 20.879C105.682 20.9885 105.517 21.1186 105.415 21.2692V24.8223H104.429V19.7905ZM107.678 19.7905H108.438L108.551 20.6223C108.811 20.3005 109.057 20.0643 109.29 19.9137C109.53 19.7631 109.78 19.6878 110.04 19.6878C110.122 19.6878 110.201 19.6981 110.276 19.7186L110.184 20.7352C110.095 20.7147 109.992 20.7044 109.876 20.7044C109.622 20.7044 109.383 20.7626 109.157 20.879C108.931 20.9885 108.766 21.1186 108.664 21.2692V24.8223H107.678V19.7905ZM112.994 24.925C112.481 24.925 112.036 24.8121 111.659 24.5861C111.283 24.3534 110.995 24.0385 110.797 23.6414C110.598 23.2443 110.499 22.7993 110.499 22.3064C110.499 21.8135 110.598 21.3685 110.797 20.9714C110.995 20.5744 111.283 20.2629 111.659 20.0369C112.036 19.8042 112.481 19.6878 112.994 19.6878C113.501 19.6878 113.943 19.8042 114.319 20.0369C114.702 20.2629 114.993 20.5744 115.192 20.9714C115.39 21.3685 115.49 21.8135 115.49 22.3064C115.49 22.7993 115.39 23.2443 115.192 23.6414C114.993 24.0385 114.702 24.3534 114.319 24.5861C113.943 24.8121 113.501 24.925 112.994 24.925ZM112.994 24.1035C113.487 24.1035 113.867 23.946 114.134 23.6311C114.408 23.3162 114.545 22.8746 114.545 22.3064C114.545 21.7382 114.408 21.2966 114.134 20.9817C113.867 20.6668 113.487 20.5093 112.994 20.5093C112.501 20.5093 112.118 20.6668 111.844 20.9817C111.577 21.2966 111.444 21.7382 111.444 22.3064C111.444 22.8746 111.577 23.3162 111.844 23.6311C112.118 23.946 112.501 24.1035 112.994 24.1035ZM116.443 19.7905H117.203L117.316 20.6223C117.576 20.3005 117.822 20.0643 118.055 19.9137C118.295 19.7631 118.544 19.6878 118.805 19.6878C118.887 19.6878 118.966 19.6981 119.041 19.7186L118.948 20.7352C118.859 20.7147 118.757 20.7044 118.64 20.7044C118.387 20.7044 118.147 20.7626 117.922 20.879C117.696 20.9885 117.531 21.1186 117.429 21.2692V24.8223H116.443V19.7905Z" fill="white"/>
<path d="M28.885 20.8439C28.885 20.8439 38.775 30.5246 60.988 28.7363C60.988 28.7363 40.055 32.395 28.885 20.8439Z" fill="#FFF8ED"/>
<path d="M25.302 25.9108C25.302 25.9108 39.0148 34.905 60.8165 29.3786C60.8165 29.3786 37.8649 35.9296 25.302 25.9108" fill="#FFF8ED"/>
<path d="M28.885 33.1587C28.885 33.1587 41.7959 39.8344 60.9963 29.9883C60.9963 29.9883 42.6729 41.4099 28.885 33.1587" fill="#FFF8ED"/>
<path d="M95.9111 20.8439C95.9111 20.8439 86.0208 30.5246 63.8081 28.7363C63.8081 28.7363 84.7408 32.395 95.9111 20.8439Z" fill="#FFF8ED"/>
<path d="M99.4936 25.9108C99.4936 25.9108 85.7811 34.905 63.9794 29.3786C63.9794 29.3786 86.931 35.9296 99.4936 25.9108Z" fill="#FFF8ED"/>
<path d="M95.9113 33.1587C95.9113 33.1587 82.9997 39.8344 63.7993 29.9883C63.7993 29.9883 82.1228 41.4099 95.9113 33.1587Z" fill="#FFF8ED"/>
<path d="M93.2307 42.8642C93.2307 42.8642 100.545 53.0309 97.9473 59.0008C97.9473 59.0008 96.8289 55.8788 94.844 52.9575C94.844 52.9575 96.4014 62.8541 88.6683 68.6255C88.6683 68.6255 95.464 67.3882 95.6577 56.1425C95.6577 56.1425 98.1181 60.0585 98.4479 61.5773C98.4479 61.5773 103.069 53.913 93.2307 42.8642" fill="#FFF8ED"/>
<path d="M60.7864 93.7663H60.7867C60.7772 93.7192 60.7692 93.6727 60.7632 93.6266C60.7692 93.673 60.7772 93.7198 60.7864 93.7663" fill="#36262E"/>
<path d="M60.9577 94.2443L60.9534 94.2371L60.9577 94.2443Z" fill="#36262E"/>
<path d="M60.9407 94.2125L60.9276 94.1862L60.9407 94.2125Z" fill="#36262E"/>
<path d="M60.8344 93.9504C60.8595 94.03 60.8897 94.1069 60.9253 94.1804C60.8894 94.1056 60.8595 94.0283 60.835 93.9504H60.8344Z" fill="#36262E"/>
</svg>
