<svg width="20" height="11" viewBox="0 0 20 11" fill="none" xmlns="http://www.w3.org/2000/svg">
<path d="M10.955 4.00667C10.2478 2.0297 8.33292 0.612732 6.08171 0.612732C3.22671 0.612732 0.906494 2.89516 0.906494 5.70364C0.906494 8.51212 3.22671 10.7945 6.08171 10.7945C8.33292 10.7945 10.2478 9.37758 10.955 7.40061H14.7071V10.7945H18.1572V7.40061H19.8823V4.00667H10.955ZM6.08171 7.40061C5.13292 7.40061 4.35664 6.63697 4.35664 5.70364C4.35664 4.77031 5.13292 4.00667 6.08171 4.00667C7.03049 4.00667 7.80678 4.77031 7.80678 5.70364C7.80678 6.63697 7.03049 7.40061 6.08171 7.40061Z" fill="#262526"/>
</svg>
