<svg width="20" height="19" viewBox="0 0 20 19" fill="none" xmlns="http://www.w3.org/2000/svg">
<path d="M6.96696 9.33669C6.3123 9.33669 5.78098 9.85936 5.78098 10.5034C5.78098 11.1474 6.3123 11.67 6.96696 11.67C7.62163 11.67 8.15295 11.1474 8.15295 10.5034C8.15295 9.85936 7.62163 9.33669 6.96696 9.33669ZM12.6597 9.33669C12.005 9.33669 11.4737 9.85936 11.4737 10.5034C11.4737 11.1474 12.005 11.67 12.6597 11.67C13.3144 11.67 13.8457 11.1474 13.8457 10.5034C13.8457 9.85936 13.3144 9.33669 12.6597 9.33669ZM9.81333 0.236694C4.57601 0.236694 0.325439 4.41803 0.325439 9.57003C0.325439 14.722 4.57601 18.9034 9.81333 18.9034C15.0506 18.9034 19.3012 14.722 19.3012 9.57003C19.3012 4.41803 15.0506 0.236694 9.81333 0.236694ZM9.81333 17.0367C5.62917 17.0367 2.22302 13.686 2.22302 9.57003C2.22302 9.29936 2.24199 9.0287 2.27046 8.76736C4.5096 7.78736 6.28383 5.98603 7.21365 3.75536C8.93095 6.14469 11.7583 7.70336 14.9558 7.70336C15.6958 7.70336 16.4074 7.61936 17.0905 7.46069C17.2898 8.12336 17.4036 8.8327 17.4036 9.57003C17.4036 13.686 13.9975 17.0367 9.81333 17.0367Z" fill="#262526"/>
</svg>
