<svg width="184" height="186" viewBox="0 0 184 186" fill="none" xmlns="http://www.w3.org/2000/svg">
<path d="M119.509 124.347L119.08 118.56L83.003 120.333V125.919C83.003 125.919 74.8882 133.638 71.6863 185H136.628C136.628 185 143.753 139.544 119.509 124.347" fill="#EB5757"/>
<path d="M83.0031 125.919L119.509 124.347" stroke="#131112" stroke-width="1.00475" stroke-miterlimit="10"/>
<path d="M90.4619 149.6L97.9404 152.645L101.944 185" stroke="#131112" stroke-width="1.00475" stroke-miterlimit="10"/>
<path d="M43.5617 113.159L53.528 80.2574L75.4514 88.4754L64.933 119.986C62.778 126.494 55.3404 129.564 49.2221 126.471C44.3444 124.005 41.9535 118.383 43.5617 113.159" fill="#F26D59"/>
<path d="M58.9368 62.6861C60.9107 56.2719 67.7968 52.7607 74.1471 54.9296C80.322 57.0385 83.6451 63.7285 81.5939 69.923L75.4513 88.4753L53.528 80.2573L58.9368 62.6861" fill="#F6F6F6"/>
<path d="M60.4879 110.691L35.4486 63.2134C35.4486 63.2134 36.0202 54.6355 21.7698 54.1227L21.7732 54.1353C21.5794 54.1261 21.3862 54.1088 21.1918 54.1088H16.429C15.5435 54.1088 14.7388 54.7318 14.6171 55.6086C14.4764 56.622 15.1871 57.4953 16.1411 57.6147L20.9455 58.2937L14.4095 60.038L13.1895 60.4885L4.28912 54.6078C3.5802 54.1025 2.58806 54.3355 2.17852 55.1038C1.85665 55.7066 2.00086 56.4519 2.52577 56.8897C3.0749 57.3477 3.95917 58.1062 4.92247 58.9391L2.95781 57.7624C2.21082 57.3148 1.2406 57.6263 0.893355 58.4246C0.621094 59.0516 0.824712 59.783 1.3825 60.1776C1.86242 60.5167 2.4802 60.9517 3.13662 61.4137L2.45367 61.1466C1.70553 60.8548 0.81837 61.0659 0.362102 61.7269C-0.25856 62.6262 0.113487 63.8468 1.10043 64.2598L10.8257 68.331C12.5048 69.0335 14.1095 69.4719 16.0846 69.0041L24.7542 66.9604L44.1534 121.26L60.4879 110.691" fill="#F26D59"/>
<path d="M50.2117 91.2055L54.8453 99.9911" stroke="#DB574A" stroke-width="0.971353" stroke-miterlimit="10"/>
<path d="M78.4289 54.4059L69.1213 55.1021C69.1213 55.1021 55.6438 73.3834 83.0031 120.333L119.081 118.56L121.8 67.9751L117.345 53.6139H101.181L78.4289 54.4059" fill="#F6F6F6"/>
<path d="M67.8639 85.6311C67.8639 85.6311 65.1794 79.9846 66.9041 67.4756" stroke="#FCD8D5" stroke-width="1.00475" stroke-miterlimit="10"/>
<path d="M151.612 106.554L136.628 75.6117L116.258 87.1533L131.568 116.634C134.713 122.726 142.539 124.597 148.099 120.587C152.532 117.389 154.015 111.462 151.612 106.554Z" fill="#F26D59"/>
<path d="M128.542 59.1012C125.59 53.0746 118.24 50.6819 112.307 53.8158C106.537 56.8626 104.3 63.9898 107.293 69.7875L116.258 87.1533L136.628 75.6117L128.542 59.1012" fill="#F6F6F6"/>
<path d="M116.257 87.1533L108.856 72.8152" stroke="#FCD8D5" stroke-width="1.00475" stroke-miterlimit="10"/>
<path d="M182.887 53.6179C182.43 52.9569 181.544 52.7463 180.795 53.0382L176.443 54.7369L180.531 51.2783C181.208 50.7049 181.398 49.6932 180.887 48.9687C180.299 48.1392 179.175 48.0123 178.427 48.6151L174.624 51.6775L177.865 47.4384C178.405 46.7335 178.373 45.7044 177.718 45.1069C176.968 44.4216 175.842 44.5387 175.241 45.2874L168.839 51.9295L162.303 50.1852L167.108 49.5057C168.062 49.3869 168.773 48.5136 168.631 47.4995C168.51 46.6228 167.705 46.0004 166.82 46.0004H162.057C159.244 46.0004 156.497 46.9827 154.415 48.8516C154.379 48.8781 154.348 48.8966 154.312 48.9249C151.389 51.2298 152.453 55.954 152.453 55.954L134.507 106.759L152.292 114.648L162.545 60.0887L169.093 60.1008C169.498 60.1389 169.907 60.1372 170.314 60.1031L170.363 60.1037L170.36 60.1008C171.063 60.0374 171.759 59.8712 172.423 59.5938L182.149 56.1513C183.136 55.7383 183.508 54.5172 182.887 53.6179" fill="#F26D59"/>
<path d="M141.48 85.6311L137.604 99.1599" stroke="#DB574A" stroke-width="0.971353" stroke-miterlimit="10"/>
<path d="M77.7049 12.4956C76.5836 13.2651 69.0618 15.2199 68.913 16.5847C68.913 16.5847 71.3876 26.258 68.853 28.0629C62.0009 32.9434 59.8073 42.5118 59.8073 42.5118C59.8073 42.5118 77.8832 56.0475 125.935 41.8352C125.935 41.8352 126.51 36.079 117.771 31.9005C115.276 30.7077 113.059 28.9097 111.657 26.4686C110.572 24.5777 110.407 23.7754 110.119 22.079C109.314 17.3346 96.2233 -0.208365 77.7049 12.4956" fill="#131112"/>
<path d="M78.4151 26.9941C78.6354 30.169 76.241 32.9216 73.0668 33.1425C69.892 33.3634 67.1394 30.9684 66.9184 27.7942C66.6975 24.6193 69.0919 21.8667 72.2667 21.6458C75.441 21.4249 78.1936 23.8199 78.4151 26.9941Z" fill="#DB574A"/>
<path d="M81.0188 41.1095L81.8154 53.6416C82.0859 58.0433 83.8856 61.0417 88.2153 60.7406C91.9121 60.4833 96.3098 57.5219 96.5129 53.8221L94.3094 34.1599L81.0188 41.1095" fill="#F26D59"/>
<path d="M78.4289 54.4059L101.181 53.6139C101.181 53.6139 100.627 64.8002 87.1049 63.7527C77.705 63.0248 78.4289 54.4059 78.4289 54.4059Z" fill="#F26D59"/>
<path d="M81.6747 51.433L96.217 37.2154L80.911 39.8261L81.6747 51.433Z" fill="#DB574A"/>
<path d="M84.8323 43.1348C77.4282 43.1567 71.3139 37.3262 71.0923 31.2805L70.6563 17.0122C70.3794 9.43504 76.1626 3.00346 83.7271 2.47682C91.471 1.93807 99.543 7.68496 100.082 15.4282L100.307 26.9076C100.482 35.7855 93.6906 42.5182 84.8323 43.1348Z" fill="#F26D59"/>
<path d="M78.858 26.2581L78.4288 29.8009L80.2597 29.8684" stroke="#131112" stroke-width="0.802014" stroke-miterlimit="10" stroke-linecap="round" stroke-linejoin="round"/>
<path d="M86.1717 17.6098C86.1717 17.6098 82.0815 17.2741 82.0405 18.9393C82.0405 18.9393 82.044 20.0665 85.6122 20.2903C89.181 20.5135 90.1091 20.2522 90.435 19.1932C90.7609 18.1341 88.0902 17.6202 86.1717 17.6098" fill="#131112"/>
<path d="M74.3128 20.0417C74.3128 20.0417 77.4109 19.7925 77.7028 21.2893C77.7028 21.2893 77.8764 22.3022 75.1624 22.458C72.4485 22.6131 71.6086 22.2763 71.5573 21.4197C71.4967 20.3987 72.8367 20.0267 74.3128 20.0417" fill="#131112"/>
<path d="M76.1113 24.906C76.1349 25.6288 75.5685 26.2339 74.8457 26.2575C74.123 26.2812 73.5179 25.7142 73.4942 24.9914C73.4706 24.2686 74.037 23.6635 74.7598 23.6399C75.4831 23.6168 76.0876 24.1833 76.1113 24.906Z" fill="#131112"/>
<path d="M87.1038 24.546C87.1275 25.2688 86.561 25.8739 85.8383 25.8975C85.1155 25.9212 84.5104 25.3548 84.4862 24.632C84.4625 23.9092 85.0296 23.3041 85.7523 23.2805C86.4751 23.2568 87.0802 23.8239 87.1038 24.546" fill="#131112"/>
<path d="M83.2754 32.3297C83.2754 32.3297 81.3401 31.4472 79.0034 33.4637" stroke="#131112" stroke-width="0.802014" stroke-miterlimit="10" stroke-linecap="round" stroke-linejoin="round"/>
<path d="M88.3093 0.0241428C86.4635 -0.0739172 84.602 0.128551 82.8156 0.604431C78.381 1.78519 70.4174 5.06963 69.0526 13.587C68.5981 15.832 68.913 16.5848 68.913 16.5848C68.913 16.5848 83.7864 17.1679 92.5789 13.0165C93.8451 18.3746 95.0143 21.6896 100.307 26.9076L105.005 19.845L110.296 24.5893C110.33 24.7687 110.323 1.19394 88.3093 0.0241428" fill="#131112"/>
<path d="M108.024 27.0518C108.244 30.2266 105.85 32.9793 102.675 33.1996C99.5004 33.4211 96.7478 31.0261 96.5268 27.8513C96.3059 24.677 98.7009 21.9244 101.875 21.7035C105.05 21.4826 107.803 23.877 108.024 27.0518Z" fill="#F26D59"/>
<path d="M100.075 29.0984C100.075 29.0984 99.7853 24.9308 103.816 25.3098" stroke="#131112" stroke-width="0.802014" stroke-miterlimit="10" stroke-linecap="round" stroke-linejoin="round"/>
</svg>
