<svg width="19" height="20" viewBox="0 0 19 20" fill="none" xmlns="http://www.w3.org/2000/svg">
<path d="M19 9.99993C19 15.1108 14.8246 19.2552 9.67036 19.2552C8.03489 19.2552 6.49853 18.8402 5.16042 18.103L0 19.7446L1.68503 14.7763C0.836322 13.3824 0.346919 11.7469 0.346919 9.99993C0.346919 4.88907 4.52233 0.744629 9.67036 0.744629C14.8246 0.744629 19 4.88907 19 9.99993ZM9.67036 2.21903C5.34627 2.21903 1.82752 5.70681 1.82752 9.99993C1.82752 11.7035 2.38507 13.2771 3.32051 14.5594L2.3417 17.4463L5.35246 16.4861C6.59146 17.2976 8.07206 17.7746 9.66417 17.7746C13.9883 17.7746 17.507 14.2869 17.507 9.99373C17.5132 5.713 13.9945 2.21903 9.67036 2.21903ZM14.3785 12.131C14.3228 12.0381 14.1679 11.9823 13.9387 11.8646C13.7095 11.7531 12.5882 11.2018 12.3776 11.1274C12.1669 11.0531 12.0121 11.0159 11.8634 11.2389C11.7147 11.4681 11.2749 11.9761 11.1386 12.131C11.0023 12.2859 10.8722 12.3045 10.643 12.1868C10.4138 12.069 9.67656 11.8336 8.80307 11.0593C8.12162 10.4584 7.66319 9.71496 7.53309 9.48574C7.3968 9.25653 7.5207 9.13883 7.63221 9.02112C7.73133 8.922 7.86143 8.75474 7.97294 8.62464C8.09064 8.49455 8.12781 8.40162 8.20215 8.24675C8.27649 8.09807 8.23932 7.96178 8.18357 7.85027C8.12781 7.73876 7.66938 6.62366 7.47734 6.16524C7.2853 5.713 7.09945 5.78734 6.96316 5.78734C6.82687 5.78734 6.67819 5.76876 6.52331 5.76876C6.36844 5.76876 6.13303 5.8369 5.9224 6.05992C5.71177 6.28294 5.12325 6.83429 5.12325 7.94939C5.12325 9.06449 5.94098 10.1424 6.05869 10.2973C6.17639 10.446 7.63841 12.8124 9.96772 13.7231C12.2908 14.6338 12.2908 14.3302 12.7121 14.2869C13.1334 14.2497 14.0626 13.7355 14.2546 13.2089C14.4405 12.6824 14.4405 12.2239 14.3785 12.131Z" fill="#F6F6F6"/>
</svg>
