<svg width="12" height="12" viewBox="0 0 12 12" fill="none" xmlns="http://www.w3.org/2000/svg">
<path d="M5.48217 10.7818L5.48147 10.7812C3.92712 9.24494 2.67533 8.00657 1.80616 6.84839C0.94368 5.6991 0.5 4.68201 0.5 3.59673C0.5 1.81731 1.7678 0.5 3.3 0.5C4.17581 0.5 5.03761 0.947106 5.606 1.67459L6 2.17888L6.394 1.67459C6.96239 0.947106 7.82419 0.5 8.7 0.5C10.2322 0.5 11.5 1.81731 11.5 3.59673C11.5 4.68201 11.0563 5.69913 10.1937 6.84933C9.32455 8.00835 8.07285 9.24823 6.51859 10.7876C6.51844 10.7878 6.5183 10.7879 6.51815 10.7881L6.00134 11.297L5.48217 10.7818Z" fill="#EB5757" stroke="#EB5757"/>
</svg>
