<svg width="57" height="21" viewBox="0 0 57 21" fill="none" xmlns="http://www.w3.org/2000/svg">
<path d="M10.6629 0H6.72766L3.4604 4.78226V0H0V9.03226V13.3387H3.4604V8.55645L6.72766 13.3387H10.6629L6.09996 6.66935L10.6629 0Z" fill="white"/>
<path d="M16.4087 9.25806C16.4087 9.62902 16.28 9.93548 16.0305 10.1935C15.773 10.4516 15.4672 10.5726 15.097 10.5726C14.7268 10.5726 14.413 10.4435 14.1554 10.1935C13.8979 9.94354 13.7692 9.62902 13.7692 9.25806V5.25806H10.6548V9.25806C10.6548 9.87096 10.7755 10.4435 11.0089 10.9839C11.2423 11.5242 11.5642 11.9919 11.9585 12.3952C12.3609 12.7984 12.8276 13.1129 13.3748 13.3468C13.9221 13.5806 14.4934 13.7016 15.105 13.7016C15.7005 13.7016 16.288 13.5806 16.8755 13.3387H19.5392V9.25806V5.25806H16.4248V9.25806H16.4087Z" fill="white"/>
<path d="M33.9119 6.20159C33.5095 5.79837 33.0428 5.48385 32.4956 5.24998C31.9483 5.01611 31.377 4.89514 30.7654 4.89514C30.194 4.89514 29.6629 4.99192 29.18 5.1774C28.6891 5.37095 28.2465 5.63708 27.8361 5.97579C27.4418 5.62901 26.9992 5.36288 26.5163 5.1774C26.0254 4.98385 25.5023 4.89514 24.931 4.89514C24.3596 4.89514 23.8204 4.99192 23.3134 5.19353C22.8064 5.38708 22.3477 5.66933 21.9454 6.0403H20.4807V13.3387H23.579V9.35482C23.579 8.97579 23.7158 8.65321 23.9814 8.38708C24.2469 8.12095 24.5608 7.98385 24.931 7.98385C25.3092 7.98385 25.6311 8.12095 25.8967 8.38708C26.1622 8.65321 26.299 8.97579 26.299 9.35482V13.3387H29.3973V9.35482C29.3973 8.97579 29.5341 8.65321 29.7997 8.38708C30.0652 8.12095 30.3871 7.98385 30.7654 7.98385C31.1355 7.98385 31.4494 8.12095 31.715 8.38708C31.9805 8.65321 32.1173 8.97579 32.1173 9.35482V13.3387H35.2156V9.35482C35.2156 8.74192 35.0949 8.16933 34.8615 7.62095C34.6281 7.07256 34.3062 6.60482 33.9119 6.20159Z" fill="white"/>
<path d="M51.9704 6.3629C51.6324 6.01612 51.238 5.74999 50.7874 5.55644C50.3287 5.3629 49.8458 5.25806 49.3308 5.25806C48.1317 5.25806 47.1982 5.63709 46.5303 6.39515C45.8704 7.15322 45.5324 8.15322 45.5324 9.39515V9.7016C45.5324 10.9839 45.8784 11.9758 46.5786 12.6613C47.2787 13.3548 48.2203 13.7016 49.4113 13.7016C49.8941 13.7016 50.3609 13.6693 50.8115 13.5968C51.2622 13.5242 51.6887 13.3871 52.0911 13.1855V10.75H49.4917C49.2262 10.75 49.033 10.7016 48.9204 10.6048C48.8077 10.5081 48.7272 10.3952 48.6709 10.2742H53.0648V9.03225C53.0648 8.50806 52.9682 8.02419 52.7671 7.56451C52.5739 7.10483 52.3083 6.70967 51.9704 6.3629ZM48.5985 8.30644C48.5985 8.0887 48.6709 7.90322 48.8158 7.74999C48.9606 7.59677 49.1457 7.52419 49.3549 7.52419C49.5561 7.52419 49.7332 7.59677 49.878 7.74999C50.0229 7.90322 50.0953 8.0887 50.0953 8.30644H48.5985Z" fill="white"/>
<path d="M54.0305 0V13.3387H57V9.03226V0H54.0305Z" fill="white"/>
<path d="M43.3676 6.05644C42.9894 5.67741 42.5388 5.37902 42.0237 5.15322C41.5087 4.92741 40.9615 4.82257 40.382 4.82257C40.0521 4.82257 39.7302 4.86289 39.4164 4.94354C39.1025 5.02418 38.7967 5.12902 38.507 5.26612H36.1652V21H39.2635V20.2258H40.382V19.1774H39.2474V18.0887H40.382V17.129H39.2635V13.0887C39.6417 13.1935 40.0199 13.2419 40.382 13.2419C40.9615 13.2419 41.5167 13.129 42.0237 12.9113C42.5388 12.6935 42.9814 12.3871 43.3676 12.0081C43.7459 11.629 44.0517 11.1855 44.269 10.6774C44.4943 10.1693 44.5989 9.62902 44.5989 9.04031C44.5989 8.4516 44.4862 7.91128 44.269 7.39515C44.0517 6.88709 43.7459 6.43547 43.3676 6.05644ZM41.2673 9.91934C41.0178 10.1693 40.7281 10.2903 40.382 10.2903C40.036 10.2903 39.7463 10.1693 39.4968 9.91934C39.2474 9.66934 39.1266 9.37902 39.1266 9.03225C39.1266 8.67741 39.2474 8.37902 39.4968 8.13709C39.7463 7.89515 40.036 7.77418 40.382 7.77418C40.7281 7.77418 41.0178 7.89515 41.2673 8.13709C41.5167 8.37902 41.6375 8.67741 41.6375 9.03225C41.6375 9.37096 41.5167 9.66934 41.2673 9.91934Z" fill="#F60A20"/>
</svg>
